<svg width="1361" height="1512" xmlns="http://www.w3.org/2000/svg" xmlns:xlink="http://www.w3.org/1999/xlink" xml:space="preserve" overflow="hidden"><g transform="translate(-394 -440)"><g><path d="M623.338 444.5 1522.66 444.5C1646.84 444.5 1747.5 544.068 1747.5 666.89L1747.5 1258.5 398.5 1258.5 398.5 666.89C398.5 544.068 499.163 444.5 623.338 444.5Z" stroke="#042433" stroke-width="6.875" stroke-linecap="butt" stroke-linejoin="miter" stroke-miterlimit="8" stroke-opacity="1" fill="#C1E5F5" fill-rule="evenodd" fill-opacity="1"/><path d="M224.838 0 1124.16 0C1248.34 0 1349 83.9107 1349 187.42L1349 686 0 686 0 187.42C0 83.9107 100.663 0 224.838 0Z" stroke="#042433" stroke-width="6.875" stroke-linecap="butt" stroke-linejoin="miter" stroke-miterlimit="8" stroke-opacity="1" fill="#4EA72E" fill-rule="evenodd" fill-opacity="1" transform="matrix(1 0 0 -1 398.5 1944.5)"/><path d="M1102.5 878 987.894 915.671 987.894 840.329ZM1019.3 692.378 967.094 793.93 909.456 740.656ZM818.5 615.5 859.256 721.43 777.744 721.43ZM617.675 692.378 727.544 740.656 669.906 793.93ZM534.5 878 649.106 840.329 649.106 915.671ZM617.675 1063.6 669.906 962.071 727.544 1015.34ZM818.5 1140.5 777.744 1034.57 859.256 1034.57ZM1019.3 1063.6 909.456 1015.34 967.094 962.071ZM676.5 878C676.5 805.513 740.076 746.75 818.5 746.75 896.924 746.75 960.5 805.513 960.5 878 960.5 950.487 896.924 1009.25 818.5 1009.25 740.076 1009.25 676.5 950.487 676.5 878Z" stroke="#000000" stroke-width="6.875" stroke-linecap="butt" stroke-linejoin="miter" stroke-miterlimit="8" stroke-opacity="1" fill="#FFC000" fill-rule="evenodd" fill-opacity="1"/><path d="M677.5 877.5C677.5 798.523 742.195 734.5 822 734.5 901.805 734.5 966.5 798.523 966.5 877.5 966.5 956.477 901.805 1020.5 822 1020.5 742.195 1020.5 677.5 956.477 677.5 877.5Z" fill="#FFC000" fill-rule="evenodd" fill-opacity="1"/><path d="M760.655 834.732C760.655 826.506 767.394 819.837 775.707 819.837 784.02 819.837 790.759 826.506 790.759 834.732 790.759 842.959 784.02 849.628 775.707 849.628 767.394 849.628 760.655 842.959 760.655 834.732M853.241 834.732C853.241 826.506 859.981 819.837 868.294 819.837 876.607 819.837 883.346 826.506 883.346 834.732 883.346 842.959 876.607 849.628 868.294 849.628 859.981 849.628 853.241 842.959 853.241 834.732" stroke="#000000" stroke-width="6.875" stroke-linecap="butt" stroke-linejoin="miter" stroke-miterlimit="8" stroke-opacity="1" fill="#CD9A00" fill-rule="evenodd" fill-opacity="1"/><path d="M743.68 939.863C795.893 975.35 848.046 975.35 900.137 939.863" stroke="#000000" stroke-width="6.875" stroke-linecap="butt" stroke-linejoin="miter" stroke-miterlimit="8" stroke-opacity="1" fill="none" fill-rule="evenodd"/><path d="M677.5 877.5C677.5 798.523 742.195 734.5 822 734.5 901.805 734.5 966.5 798.523 966.5 877.5 966.5 956.477 901.805 1020.5 822 1020.5 742.195 1020.5 677.5 956.477 677.5 877.5Z" stroke="#000000" stroke-width="6.875" stroke-linecap="butt" stroke-linejoin="miter" stroke-miterlimit="8" stroke-opacity="1" fill="none" fill-rule="evenodd"/><text fill="#000000" fill-opacity="1" font-family="Aptos,Aptos_MSFontService,sans-serif" font-style="normal" font-variant="normal" font-weight="700" font-stretch="normal" font-size="110" text-anchor="start" direction="ltr" writing-mode="lr-tb" unicode-bidi="normal" text-decoration="none" transform="matrix(1 0 0 1 1171.58 733)">PARASOL</text><rect x="1529.5" y="1209.5" width="37.0001" height="495" stroke="#000000" stroke-width="6.875" stroke-linecap="butt" stroke-linejoin="miter" stroke-miterlimit="8" stroke-opacity="1" fill="#000000" fill-opacity="1"/><path d="M1693.74 1078.77 1712.34 1110.55 1280.86 1363.07 1262.26 1331.29Z" stroke="#000000" stroke-width="6.875" stroke-linecap="butt" stroke-linejoin="miter" stroke-miterlimit="8" stroke-opacity="1" fill="#AEAEAE" fill-rule="nonzero" fill-opacity="1"/><text fill="#000000" fill-opacity="1" font-family="Aptos,Aptos_MSFontService,sans-serif" font-style="normal" font-variant="normal" font-weight="400" font-stretch="normal" font-size="92" text-anchor="start" direction="ltr" writing-mode="lr-tb" unicode-bidi="normal" text-decoration="none" transform="matrix(1 0 0 1 457.162 1425)">Modular</text><text fill="#000000" fill-opacity="1" font-family="Aptos,Aptos_MSFontService,sans-serif" font-style="normal" font-variant="normal" font-weight="400" font-stretch="normal" font-size="92" text-anchor="start" direction="ltr" writing-mode="lr-tb" unicode-bidi="normal" text-decoration="none" transform="matrix(1 0 0 1 457.162 1535)">Open</text><text fill="#000000" fill-opacity="1" font-family="Aptos,Aptos_MSFontService,sans-serif" font-style="normal" font-variant="normal" font-weight="400" font-stretch="normal" font-size="92" text-anchor="start" direction="ltr" writing-mode="lr-tb" unicode-bidi="normal" text-decoration="none" transform="matrix(1 0 0 1 674.297 1535)">-</text><text fill="#000000" fill-opacity="1" font-family="Aptos,Aptos_MSFontService,sans-serif" font-style="normal" font-variant="normal" font-weight="400" font-stretch="normal" font-size="92" text-anchor="start" direction="ltr" writing-mode="lr-tb" unicode-bidi="normal" text-decoration="none" transform="matrix(1 0 0 1 705.464 1535)">Sourced</text><text fill="#000000" fill-opacity="1" font-family="Aptos,Aptos_MSFontService,sans-serif" font-style="normal" font-variant="normal" font-weight="400" font-stretch="normal" font-size="92" text-anchor="start" direction="ltr" writing-mode="lr-tb" unicode-bidi="normal" text-decoration="none" transform="matrix(1 0 0 1 457.162 1645)">ISOS</text><text fill="#000000" fill-opacity="1" font-family="Aptos,Aptos_MSFontService,sans-serif" font-style="normal" font-variant="normal" font-weight="400" font-stretch="normal" font-size="92" text-anchor="start" direction="ltr" writing-mode="lr-tb" unicode-bidi="normal" text-decoration="none" transform="matrix(1 0 0 1 652.526 1645)">-</text><text fill="#000000" fill-opacity="1" font-family="Aptos,Aptos_MSFontService,sans-serif" font-style="normal" font-variant="normal" font-weight="400" font-stretch="normal" font-size="92" text-anchor="start" direction="ltr" writing-mode="lr-tb" unicode-bidi="normal" text-decoration="none" transform="matrix(1 0 0 1 683.464 1645)">O/L compatible</text><text fill="#000000" fill-opacity="1" font-family="Aptos,Aptos_MSFontService,sans-serif" font-style="normal" font-variant="normal" font-weight="400" font-stretch="normal" font-size="92" text-anchor="start" direction="ltr" writing-mode="lr-tb" unicode-bidi="normal" text-decoration="none" transform="matrix(1 0 0 1 457.162 1755)">Testing Platform</text><text fill="#000000" fill-opacity="1" font-family="Aptos,Aptos_MSFontService,sans-serif" font-style="normal" font-variant="normal" font-weight="400" font-stretch="normal" font-size="128" text-anchor="start" direction="ltr" writing-mode="lr-tb" unicode-bidi="normal" text-decoration="none" transform="matrix(0.866025 -0.5 0.5 0.866025 1341.81 1214)">ABX</text><text fill="#000000" fill-opacity="1" font-family="Aptos,Aptos_MSFontService,sans-serif" font-style="normal" font-variant="normal" font-weight="400" font-stretch="normal" font-size="86" text-anchor="start" direction="ltr" writing-mode="lr-tb" unicode-bidi="normal" text-decoration="none" transform="matrix(0.866025 -0.5 0.5 0.866025 1548 1130)">3</text></g></g></svg>